<svg xmlns="http://www.w3.org/2000/svg" width="35.67" height="108.48" viewBox="0 0 35.67 108.48"><g id="Layer_2" data-name="Layer 2"><g id="Layer_1-2" data-name="Layer 1"><line x1="1.63" y1="18.17" x2="1.53" y2="108.47" style="fill:none;stroke:#000;stroke-miterlimit:10;stroke-width:3px"/><ellipse cx="17.85" cy="15.8" rx="18.24" ry="14.19" transform="translate(-5.51 11.04) rotate(-30)" style="stroke:#000;stroke-miterlimit:10"/><path d="M1.57,108.16c-.42-3,1.76-7.92,5-11.49,6.89-7.66,10.17,2.29,17.23-5,3.84-4,5-4.6,10.34-14.94" style="fill:none;stroke:#000;stroke-miterlimit:10;stroke-width:3px"/><path d="M1.55,95.57c-.42-3,1.76-7.91,5-11.49,6.89-7.66,10.18,2.29,17.23-5,3.84-3.95,5-4.59,10.34-14.93" style="fill:none;stroke:#000;stroke-miterlimit:10;stroke-width:3px"/><path d="M1.61,82.49c-.41-3,1.76-7.92,5-11.49,6.9-7.66,10.18,2.29,17.24-5,3.84-4,5-4.6,10.34-14.94" style="fill:none;stroke:#000;stroke-miterlimit:10;stroke-width:3px"/></g></g></svg>